# xmcd CD database file
#
# Track frame offsets:
#	150
#	9180
#	22000
#	34002
#	47045
#	60032
#	71970
#	85455
#	94980
#	107565
#	117155
#	127622
#	147602
#	160780
#	180597
#	190385
#	202122
#	207627
#	218722
#
# Disc length: 3057 seconds
#
# Revision: 0
# Processed by: cddbd v1.4PL0 Copyright (c) Steve Scherf et al.
# Submitted via: CDex 1.50
#
DISCID=0f0bef13
DTITLE=Various Artist - Western CD1
DYEAR=1998
DGENRE=Country
TTITLE0=F. Lane_Rawhide
TTITLE1=Tammy Winette_Stand by your man
TTITLE2=Waylon Jennings_Don't think twice
TTITLE3=J. Tillotson_Let it be me
TTITLE4=Lynn Anderson_Rose Garden
TTITLE5=Mell Tillis_Ruby, don't bring your love in town
TTITLE6=Charlie Rich_The most beautiful girl
TTITLE7=D. Davis and Nashville Brass Band_Orange Blossom special
TTITLE8=J. Cash_Folsom prison blues
TTITLE9=Willie Nelson_Let's pretend
TTITLE10=Porter Wagon_I think I heard you calling my name
TTITLE11=The Osmonds_He ain't heavy he's my brother
TTITLE12=Hoyt Axton_Joy to the world
TTITLE13=Nitty Gritty Dirty Band_Cadillac Ranch
TTITLE14=Dolly Parton_Release me
TTITLE15=Waylon Jennings_Crying
TTITLE16=Willie Nelson_The Ghost
TTITLE17=George Jones_She's my rock
TTITLE18=Kenny Rogers_She even woke me up to say good bye
EXTD=YEAR: 1998
EXTT0=
EXTT1=
EXTT2=
EXTT3=
EXTT4=
EXTT5=
EXTT6=
EXTT7=
EXTT8=
EXTT9=
EXTT10=
EXTT11=
EXTT12=
EXTT13=
EXTT14=
EXTT15=
EXTT16=
EXTT17=
EXTT18=
PLAYORDER=
